<svg xmlns="http://www.w3.org/2000/svg" width="400" height="456" viewBox="0 0 200 228">
<style>
  .status { font: 700 11px -apple-system, BlinkMacSystemFont, "Segoe UI", sans-serif; letter-spacing: 0; }
  .timer { font: 800 31px -apple-system, BlinkMacSystemFont, "Segoe UI", sans-serif; letter-spacing: 0; }
  .label { font: 500 13px -apple-system, BlinkMacSystemFont, "Segoe UI", sans-serif; fill: #3e5459; letter-spacing: 0; }
  .value { font: 750 19px -apple-system, BlinkMacSystemFont, "Segoe UI", sans-serif; fill: #071014; letter-spacing: 0; }
  .menu { font: 750 16px -apple-system, BlinkMacSystemFont, "Segoe UI", sans-serif; letter-spacing: 0; }
  .footer { font: 500 12px -apple-system, BlinkMacSystemFont, "Segoe UI", sans-serif; fill: #3e5459; letter-spacing: 0; }
  .title { font: 750 20px -apple-system, BlinkMacSystemFont, "Segoe UI", sans-serif; letter-spacing: 0; }
</style>
<rect width="200" height="228" fill="#f7fbf8"/>
<rect width="180" height="2" fill="#3e5459"/>
<text x="8" y="17" class="status" fill="#3e5459">RUNNING</text>
<text x="180" y="17" class="status" fill="#3e5459" text-anchor="end">CHOOSE</text>
<text x="90" y="47" class="label" text-anchor="middle">Choose Activity</text>
<line x1="14" y1="86" x2="176" y2="86" stroke="#3e5459" stroke-width="1" opacity="0.45"/>
<g transform="translate(13 58) scale(1)" stroke="#071014" stroke-linecap="round" stroke-linejoin="round">
<circle cx="14" cy="4.8" r="3.1" fill="#071014" stroke="none"/>
<line x1="13.8" y1="8.2" x2="13" y2="14.8" stroke-width="3"/>
<line x1="13.2" y1="10.5" x2="8.6" y2="15.3" stroke-width="2.5"/>
<line x1="13.2" y1="10.5" x2="18" y2="10.1" stroke-width="2.5"/>
<line x1="13" y1="14.5" x2="9.5" y2="22.4" stroke-width="3"/>
<line x1="9.5" y1="22.4" x2="5.6" y2="22.9" stroke-width="2.4"/>
<line x1="13.1" y1="14.7" x2="18.3" y2="21" stroke-width="3"/>
<line x1="18.3" y1="21" x2="21.8" y2="23.4" stroke-width="2.4"/>
</g>
<text x="46" y="79" class="menu" fill="#071014">WALKING</text>
<rect x="8" y="96" width="168" height="31" rx="4" fill="#007c54"/>
<g transform="translate(13 98) scale(1)" stroke="#ffffff" stroke-linecap="round" stroke-linejoin="round">
<circle cx="14.6" cy="4.7" r="3" fill="#ffffff" stroke="none"/>
<line x1="13.6" y1="8.5" x2="10.6" y2="14.4" stroke-width="3"/>
<line x1="12.2" y1="10.3" x2="6.6" y2="10.6" stroke-width="2.6"/>
<line x1="12.2" y1="10.4" x2="16.9" y2="14.2" stroke-width="2.6"/>
<line x1="10.8" y1="14.2" x2="6" y2="21" stroke-width="3.2"/>
<line x1="6" y1="21" x2="2.6" y2="20.6" stroke-width="2.4"/>
<line x1="10.8" y1="14.2" x2="19" y2="16.6" stroke-width="3.2"/>
<line x1="19" y1="16.6" x2="23.8" y2="23.2" stroke-width="2.9"/>
<line x1="2.8" y1="7.8" x2="7.5" y2="7.8" stroke-width="1.4"/>
<line x1="2.2" y1="14" x2="6.1" y2="14" stroke-width="1.4"/>
<line x1="2.5" y1="25" x2="8" y2="25" stroke-width="1.4"/>
</g>
<text x="46" y="119" class="menu" fill="#ffffff">RUNNING</text>
<line x1="14" y1="166" x2="176" y2="166" stroke="#3e5459" stroke-width="1" opacity="0.45"/>
<g transform="translate(13 138) scale(1)" stroke="#071014" stroke-linecap="round" stroke-linejoin="round">
<circle cx="7.5" cy="20.8" r="5" fill="none" stroke-width="2"/>
<circle cx="21" cy="20.8" r="5" fill="none" stroke-width="2"/>
<line x1="7.5" y1="20.8" x2="13.5" y2="20.8" stroke-width="2"/>
<line x1="13.5" y1="20.8" x2="11.8" y2="13.2" stroke-width="2"/>
<line x1="11.8" y1="13.2" x2="21" y2="20.8" stroke-width="2"/>
<line x1="13.5" y1="20.8" x2="18" y2="13" stroke-width="2"/>
<line x1="18" y1="13" x2="21" y2="20.8" stroke-width="2"/>
<line x1="11" y1="12.4" x2="14.2" y2="12.4" stroke-width="2"/>
<line x1="17.8" y1="13" x2="22.5" y2="11.7" stroke-width="1.8"/>
<line x1="22.5" y1="11.7" x2="25" y2="13.1" stroke-width="1.8"/>
<circle cx="13.5" cy="20.8" r="2" fill="#071014" stroke="none"/>
</g>
<text x="46" y="159" class="menu" fill="#071014">CYCLING</text>
<rect x="182" y="0" width="18" height="228" fill="#071014"/>

<g fill="none" stroke="#f7fbf8" stroke-width="2">
<circle cx="191" cy="114" r="5"/>
<path d="M191 106 L191 109 M191 119 L191 122 M183 114 L186 114 M196 114 L199 114"/>
</g>
<circle cx="191" cy="114" r="2" fill="#f7fbf8"/>
<g stroke="#f7fbf8" stroke-width="2">
<path d="M186 166 L195 166 M186 171 L195 171 M186 176 L195 176"/>
</g>
<g fill="#f7fbf8"><circle cx="197" cy="166" r="1.2"/><circle cx="197" cy="171" r="1.2"/><circle cx="197" cy="176" r="1.2"/></g>
</svg>
