<svg xmlns="http://www.w3.org/2000/svg" width="400" height="456" viewBox="0 0 200 228">
<style>
  .status { font: 700 11px -apple-system, BlinkMacSystemFont, "Segoe UI", sans-serif; letter-spacing: 0; }
  .timer { font: 800 31px -apple-system, BlinkMacSystemFont, "Segoe UI", sans-serif; letter-spacing: 0; }
  .label { font: 500 13px -apple-system, BlinkMacSystemFont, "Segoe UI", sans-serif; fill: #3e5459; letter-spacing: 0; }
  .value { font: 750 19px -apple-system, BlinkMacSystemFont, "Segoe UI", sans-serif; fill: #071014; letter-spacing: 0; }
  .menu { font: 750 16px -apple-system, BlinkMacSystemFont, "Segoe UI", sans-serif; letter-spacing: 0; }
  .footer { font: 500 12px -apple-system, BlinkMacSystemFont, "Segoe UI", sans-serif; fill: #3e5459; letter-spacing: 0; }
  .title { font: 750 20px -apple-system, BlinkMacSystemFont, "Segoe UI", sans-serif; letter-spacing: 0; }
</style>
<rect width="200" height="228" fill="#f7fbf8"/>
<rect width="184" height="2" fill="#3e5459"/>
<text x="8" y="17" class="status" fill="#3e5459">RUNNING</text>
<text x="184" y="17" class="status" fill="#3e5459" text-anchor="end">CHOOSE</text>
<text x="92" y="42" class="label" text-anchor="middle">Choose Activity</text>
<line x1="14" y1="78" x2="180" y2="78" stroke="#3e5459" stroke-width="1" opacity="0.45"/>
<g fill="#007c54">
<rect x="20" y="54" width="5" height="13" rx="3"/>
<circle cx="19" cy="52" r="2"/>
<rect x="30" y="65" width="5" height="13" rx="3"/>
<circle cx="29" cy="63" r="2"/>
</g>
<text x="46" y="71" class="menu" fill="#071014">WALKING</text>
<rect x="8" y="81" width="172" height="31" rx="4" fill="#007c54"/>
<g fill="none" stroke="#ffffff" stroke-width="3" stroke-linecap="round">
<path d="M16 91 L25 91 M14 97 L22 97 M17 103 L25 103 M32 85 L26 96 L33 96 L24 110"/>
</g>
<text x="46" y="104" class="menu" fill="#ffffff">RUNNING</text>
<line x1="14" y1="144" x2="180" y2="144" stroke="#3e5459" stroke-width="1" opacity="0.45"/>
<g fill="none" stroke="#007c54" stroke-width="2">
<circle cx="18" cy="135" r="5"/>
<circle cx="36" cy="135" r="5"/>
<path d="M18 135 L27 135 L24 126 L36 135 M27 135 L36 135 M32 125 L36 135"/>
<path d="M18 124 L29 124 M32 125 L41 122"/>
</g>
<circle cx="27" cy="135" r="3" fill="#007c54"/>
<text x="46" y="137" class="menu" fill="#071014">CYCLING</text>
<line x1="186" y1="20" x2="186" y2="220" stroke="#071014" stroke-width="1"/>

<g fill="none" stroke="#071014" stroke-width="2">
<circle cx="193" cy="84" r="5"/>
<path d="M193 76 L193 79 M193 89 L193 92 M185 84 L188 84 M198 84 L201 84"/>
</g>
<circle cx="193" cy="84" r="2" fill="#071014"/>
<g stroke="#071014" stroke-width="2">
<path d="M188 121 L197 121 M188 126 L197 126 M188 131 L197 131"/>
</g>
<g fill="#071014"><circle cx="199" cy="121" r="1.2"/><circle cx="199" cy="126" r="1.2"/><circle cx="199" cy="131" r="1.2"/></g>
</svg>
