<svg xmlns="http://www.w3.org/2000/svg" width="400" height="456" viewBox="0 0 200 228">
<style>
  .status { font: 700 11px -apple-system, BlinkMacSystemFont, "Segoe UI", sans-serif; letter-spacing: 0; }
  .timer { font: 800 31px -apple-system, BlinkMacSystemFont, "Segoe UI", sans-serif; letter-spacing: 0; }
  .label { font: 500 13px -apple-system, BlinkMacSystemFont, "Segoe UI", sans-serif; fill: #3e5459; letter-spacing: 0; }
  .value { font: 750 19px -apple-system, BlinkMacSystemFont, "Segoe UI", sans-serif; fill: #071014; letter-spacing: 0; }
  .menu { font: 750 16px -apple-system, BlinkMacSystemFont, "Segoe UI", sans-serif; letter-spacing: 0; }
  .footer { font: 500 12px -apple-system, BlinkMacSystemFont, "Segoe UI", sans-serif; fill: #3e5459; letter-spacing: 0; }
  .title { font: 750 20px -apple-system, BlinkMacSystemFont, "Segoe UI", sans-serif; letter-spacing: 0; }
</style>
<rect width="200" height="228" fill="#f7fbf8"/>
<rect width="180" height="2" fill="#3e5459"/>
<text x="8" y="17" class="status" fill="#3e5459">RUN</text>
<text x="90" y="17" class="status" fill="#071014" text-anchor="middle">10:09</text>
<text x="180" y="17" class="status" fill="#3e5459" text-anchor="end">PICK</text>
<line x1="8" y1="85" x2="176" y2="85" stroke="#3e5459" stroke-width="1" stroke-dasharray="1 3" opacity="0.65"/>
<path d="M424.67-373.33 353.67-66q-2.34 12-11.72 19-9.39 7-21.63 7-16.32 0-26.65-12.33-10.34-12.34-7-28l106.66-538.34-91.33 38V-480q0 14.17-9.62 23.75-9.61 9.58-23.83 9.58-14.22 0-24.05-9.77-9.83-9.78-9.83-24.23v-122q0-10.22 5.41-18.31 5.42-8.09 14.59-12.35l175.52-74.15q13.81-5.85 29.31-7.19 15.5-1.33 30.17 2.34 16 3.66 28.5 11.91t20.5 21.09L580-614q15 22.67 33.83 41.33 18.84 18.67 41.5 32.34 16 9.33 33.34 15.5 17.33 6.16 35.66 9.16 13.41 2.5 22.21 12.09 8.79 9.58 8.79 23.75 0 14.16-9.85 23.5-9.85 9.33-23.81 7.33-58-7.33-103.84-35.33-45.83-28-82.16-75.34L502-417.33l78.67 72q5.33 5.03 8 11.32 2.66 6.3 2.66 13.01v247.67q0 14.16-9.61 23.75Q572.1-40 557.88-40q-14.21 0-23.71-9.58-9.5-9.59-9.5-23.75v-213.34l-100-86.66Zm115.38-376q-31.05 0-53.22-22.12-22.16-22.11-22.16-53.16 0-31.06 22.11-53.22Q508.89-900 539.95-900q31.05 0 53.22 22.11 22.16 22.12 22.16 53.17t-22.11 53.22q-22.11 22.17-53.17 22.17Z" transform="translate(13 78) scale(0.03333333333333333)" fill="#071014"/>
<text x="52" y="68" class="menu" fill="#071014">WALKING</text>
<rect x="0" y="92" width="180" height="48" fill="#007c54"/>
<path d="M530-73.33v-206L430-372l-34.33 152q-3.32 13.41-14.49 20.54-11.18 7.13-24.51 4.79l-204.67-42q-13-2.33-20.67-13.66-7.66-11.34-5.33-25 2.33-13.67 14-20.84 11.67-7.16 24.67-4.5l164.66 33.34 70-354-90.66 40.66v101.34q0 14.16-9.62 23.75-9.62 9.58-23.83 9.58-14.22 0-23.72-9.58-9.5-9.59-9.5-23.75v-124q0-10.23 5.42-18.32 5.41-8.09 14.58-12.35l142-60q33-14.33 47.5-18.17Q466-716 479.73-716q20.6 0 36.94 9.33Q533-697.33 544-680l41.33 66q22.34 36 58.17 63.33 35.83 27.34 83.17 35.34 14.16 2.44 23.75 12.21 9.58 9.77 9.58 23.61T750.47-456q-9.54 9.67-22.8 7.67-56-6.67-102-35.5-46-28.84-83.67-78.17l-34 145.33L586-344q5.33 5.03 8 11.33 2.67 6.29 2.67 13v246.34q0 14.16-9.62 23.75Q577.43-40 563.22-40 549-40 539.5-49.58q-9.5-9.59-9.5-23.75Zm10.05-676q-31.05 0-53.22-22.12-22.16-22.11-22.16-53.16 0-31.06 22.11-53.22Q508.89-900 539.95-900q31.05 0 53.22 22.11 22.16 22.12 22.16 53.17t-22.11 53.22q-22.11 22.17-53.17 22.17Z" transform="translate(13 132) scale(0.03333333333333333)" fill="#ffffff"/>
<text x="52" y="122" class="menu" fill="#ffffff">RUNNING</text>
<line x1="8" y1="193" x2="176" y2="193" stroke="#3e5459" stroke-width="1" stroke-dasharray="1 3" opacity="0.65"/>
<path d="M619.39-749.33q-31.06 0-53.22-22.12Q544-793.56 544-824.61q0-31.06 22.11-53.22Q588.23-900 619.28-900t53.22 22.11q22.17 22.12 22.17 53.17t-22.12 53.22q-22.11 22.17-53.16 22.17Zm-194.06 204 70.67 75q9 9.3 13.5 21.15 4.5 11.85 4.5 24.51v187.34q0 14.16-9.62 23.75-9.61 9.58-23.83 9.58-14.22 0-23.72-9.58-9.5-9.59-9.5-23.75V-404L314-520.67q-10.67-9.33-16.33-22.66Q292-556.67 292-572q0-15.33 6.17-28.17 6.16-12.83 15.83-22.5l116.67-116.66q9.66-9.67 24.16-15.84 14.5-6.16 31.17-6.16t31.17 6.16q14.5 6.17 24.16 15.84L618.67-662q22.33 22.33 50.66 38.83 28.34 16.5 63 22.5 14.34 2.34 24 12Q766-579 766-564.73q0 14.27-9.85 23.67-9.86 9.39-23.82 7.39-49-5.66-90-27-41-21.33-73.66-54L531.33-652l-106 106.67Zm-225.27 72q83.61 0 140.11 56.56 56.5 56.55 56.5 140.16T340.11-136.5Q283.55-80 199.94-80q-83.61 0-140.11-56.56-56.5-56.56-56.5-140.17 0-83.6 56.56-140.1t140.17-56.5ZM200-132.67q60.33 0 102.17-41.83Q344-216.33 344-276.67q0-60.33-41.83-102.16-41.84-41.84-102.17-41.84T97.83-378.83Q56-337 56-276.67q0 60.34 41.83 102.17 41.84 41.83 102.17 41.83Zm560.06-340.66q83.61 0 140.11 56.56 56.5 56.55 56.5 140.16T900.11-136.5Q843.55-80 759.94-80q-83.61 0-140.11-56.56-56.5-56.56-56.5-140.17 0-83.6 56.56-140.1t140.17-56.5ZM760-132.67q60.33 0 102.17-41.83Q904-216.33 904-276.67q0-60.33-41.83-102.16-41.84-41.84-102.17-41.84t-102.17 41.84Q616-337 616-276.67q0 60.34 41.83 102.17 41.84 41.83 102.17 41.83Z" transform="translate(12 187) scale(0.035416666666666666)" fill="#071014"/>
<text x="52" y="176" class="menu" fill="#071014">CYCLING</text>
<rect x="180" y="0" width="20" height="228" fill="#071014"/>
<path d="M185 60 L190 54 L195 60" fill="none" stroke="#f7fbf8" stroke-width="2"/>
<g fill="none" stroke="#f7fbf8" stroke-width="2">
<circle cx="190" cy="114" r="5"/>
<path d="M190 106 L190 109 M190 119 L190 122 M182 114 L185 114 M195 114 L198 114"/>
</g>
<circle cx="190" cy="114" r="2" fill="#f7fbf8"/>
<path d="M185 168 L190 174 L195 168" fill="none" stroke="#f7fbf8" stroke-width="2"/>
</svg>
