<svg xmlns="http://www.w3.org/2000/svg" width="400" height="456" viewBox="0 0 200 228">
<style>
  .status { font: 700 11px -apple-system, BlinkMacSystemFont, "Segoe UI", sans-serif; letter-spacing: 0; }
  .timer { font: 800 31px -apple-system, BlinkMacSystemFont, "Segoe UI", sans-serif; letter-spacing: 0; }
  .label { font: 500 13px -apple-system, BlinkMacSystemFont, "Segoe UI", sans-serif; fill: #3e5459; letter-spacing: 0; }
  .value { font: 750 19px -apple-system, BlinkMacSystemFont, "Segoe UI", sans-serif; fill: #071014; letter-spacing: 0; }
  .menu { font: 750 16px -apple-system, BlinkMacSystemFont, "Segoe UI", sans-serif; letter-spacing: 0; }
  .footer { font: 500 12px -apple-system, BlinkMacSystemFont, "Segoe UI", sans-serif; fill: #3e5459; letter-spacing: 0; }
  .title { font: 750 20px -apple-system, BlinkMacSystemFont, "Segoe UI", sans-serif; letter-spacing: 0; }
</style>
<rect width="200" height="228" fill="#f7fbf8"/>
<rect width="180" height="2" fill="#007c54"/>
<text x="8" y="17" class="status" fill="#3e5459">RIDE</text>
<text x="90" y="17" class="status" fill="#071014" text-anchor="middle">10:09</text>
<text x="180" y="17" class="status" fill="#007c54" text-anchor="end">REC</text>
<rect x="0" y="27" width="180" height="58" fill="#007c54"/>

<text x="90" y="70" class="timer" fill="#ffffff" text-anchor="middle">41:08</text>
<line x1="8" y1="86" x2="176" y2="86" stroke="#3e5459" stroke-width="1" stroke-dasharray="1 3" opacity="0.65"/>
<text x="8" y="111" class="status" fill="#3e5459">DIST</text>
<text x="140" y="115" class="value" text-anchor="end">18.74</text>
<text x="143" y="111" class="status" fill="#071014">KM</text>
<line x1="8" y1="125" x2="176" y2="125" stroke="#3e5459" stroke-width="1" stroke-dasharray="1 3" opacity="0.65"/>
<text x="8" y="150" class="status" fill="#3e5459">SPEED</text>
<text x="140" y="154" class="value" text-anchor="end">27.3</text>
<text x="143" y="150" class="status" fill="#071014">KM/H</text>
<rect x="0" y="164" width="180" height="39" fill="#ffdc00"/>
<line x1="8" y1="164" x2="176" y2="164" stroke="#000000" stroke-width="1" stroke-dasharray="1 3" opacity="0.65"/>
<text x="8" y="178" class="status" fill="#000000">ENDURANCE</text>
<path d="M480-142.33q-12 0-24.17-4.34Q443.67-151 434.67-160l-58.34-53.67q-118-109-207.16-210.5Q80-525.67 80-640q0-91.33 61.33-152.67 61.34-61.33 152-61.33Q345-854 394-830.17q49 23.84 86 74.17 40.33-50.33 87.33-74.17 47-23.83 99.34-23.83 90.66 0 152 61.33Q880-731.33 880-640q0 114.33-89 216T583.33-213.33l-58 53.33q-9 9-21.16 13.33-12.17 4.34-24.17 4.34Z" transform="translate(103 196) scale(0.022916666666666665)" fill="#000000"/>
<text x="176" y="193" class="value" fill="#000000" text-anchor="end">146</text>
<rect x="8" y="195" width="12" height="4" fill="#000000"/>
<rect x="23" y="195" width="12" height="4" fill="#000000"/>
<rect x="38" y="195" width="12" height="4" fill="none" stroke="#000000" stroke-width="1"/>
<text x="90" y="222" class="footer" text-anchor="middle">GPS 14 M</text>
<rect x="180" y="0" width="20" height="228" fill="#071014"/>
<g fill="#f7fbf8"><rect x="185" y="51" width="3" height="12" rx="1"/><rect x="192" y="51" width="3" height="12" rx="1"/></g>


</svg>
