<svg xmlns="http://www.w3.org/2000/svg" width="400" height="456" viewBox="0 0 200 228">
<style>
  .status { font: 700 11px -apple-system, BlinkMacSystemFont, "Segoe UI", sans-serif; letter-spacing: 0; }
  .timer { font: 800 31px -apple-system, BlinkMacSystemFont, "Segoe UI", sans-serif; letter-spacing: 0; }
  .label { font: 500 13px -apple-system, BlinkMacSystemFont, "Segoe UI", sans-serif; fill: #3e5459; letter-spacing: 0; }
  .value { font: 750 19px -apple-system, BlinkMacSystemFont, "Segoe UI", sans-serif; fill: #071014; letter-spacing: 0; }
  .menu { font: 750 16px -apple-system, BlinkMacSystemFont, "Segoe UI", sans-serif; letter-spacing: 0; }
  .footer { font: 500 12px -apple-system, BlinkMacSystemFont, "Segoe UI", sans-serif; fill: #3e5459; letter-spacing: 0; }
  .title { font: 750 20px -apple-system, BlinkMacSystemFont, "Segoe UI", sans-serif; letter-spacing: 0; }
</style>
<rect width="200" height="228" fill="#f7fbf8"/>
<rect width="180" height="2" fill="#007c54"/>
<text x="8" y="17" class="status" fill="#3e5459">RUN</text>
<text x="90" y="17" class="status" fill="#071014" text-anchor="middle">10:09</text>
<text x="180" y="17" class="status" fill="#007c54" text-anchor="end">SAVED</text>
<rect x="0" y="27" width="180" height="84" fill="#007c54"/>
<path d="M22 69 L34 81 L53 57" fill="none" stroke="#ffffff" stroke-width="3"/>
<text x="62" y="59" class="title" fill="#ffffff">SAVED</text>
<text x="62" y="99" class="status" fill="#ffffff">RUNNING</text>
<line x1="8" y1="112" x2="176" y2="112" stroke="#3e5459" stroke-width="1" stroke-dasharray="1 3" opacity="0.65"/>
<text x="8" y="140" class="status" fill="#3e5459">TIME</text>
<text x="140" y="144" class="value" text-anchor="end">23:14</text>
<text x="143" y="140" class="status" fill="#071014"></text>
<line x1="8" y1="157" x2="176" y2="157" stroke="#3e5459" stroke-width="1" stroke-dasharray="1 3" opacity="0.65"/>
<text x="8" y="185" class="status" fill="#3e5459">DIST</text>
<text x="140" y="189" class="value" text-anchor="end">4.62</text>
<text x="143" y="185" class="status" fill="#071014">KM</text>
<text x="90" y="222" class="footer" text-anchor="middle">286 GPS PTS</text>
<rect x="180" y="0" width="20" height="228" fill="#071014"/>
<path d="M187 51 L195 57 L187 63 Z" fill="none" stroke="#f7fbf8" stroke-width="2"/>

<g stroke="#f7fbf8" stroke-width="2">
<path d="M185 166 L194 166 M185 171 L194 171 M185 176 L194 176"/>
</g>
<g fill="#f7fbf8"><circle cx="196" cy="166" r="1.2"/><circle cx="196" cy="171" r="1.2"/><circle cx="196" cy="176" r="1.2"/></g>
</svg>
