<svg xmlns="http://www.w3.org/2000/svg" width="400" height="456" viewBox="0 0 200 228">
<style>
  .status { font: 700 11px -apple-system, BlinkMacSystemFont, "Segoe UI", sans-serif; letter-spacing: 0; }
  .timer { font: 800 31px -apple-system, BlinkMacSystemFont, "Segoe UI", sans-serif; letter-spacing: 0; }
  .label { font: 500 13px -apple-system, BlinkMacSystemFont, "Segoe UI", sans-serif; fill: #3e5459; letter-spacing: 0; }
  .value { font: 750 19px -apple-system, BlinkMacSystemFont, "Segoe UI", sans-serif; fill: #071014; letter-spacing: 0; }
  .menu { font: 750 16px -apple-system, BlinkMacSystemFont, "Segoe UI", sans-serif; letter-spacing: 0; }
  .footer { font: 500 12px -apple-system, BlinkMacSystemFont, "Segoe UI", sans-serif; fill: #3e5459; letter-spacing: 0; }
  .title { font: 750 20px -apple-system, BlinkMacSystemFont, "Segoe UI", sans-serif; letter-spacing: 0; }
</style>
<rect width="200" height="228" fill="#f7fbf8"/>
<rect width="180" height="2" fill="#9a6500"/>
<text x="8" y="17" class="status" fill="#3e5459">RUNNING</text>
<text x="180" y="17" class="status" fill="#9a6500" text-anchor="end">GPS SEARCH</text>
<g fill="none" stroke="#3e5459" stroke-width="1">
<circle cx="90" cy="78" r="21"/>
<circle cx="90" cy="78" r="29"/>
</g>
<g stroke="#9a6500" stroke-width="2">
<path d="M90 51 L90 65 M90 91 L90 105 M63 78 L77 78 M103 78 L117 78"/>
</g>
<circle cx="90" cy="78" r="5" fill="#9a6500"/>
<text x="90" y="135" class="title" fill="#9a6500" text-anchor="middle">FINDING GPS</text>
<text x="90" y="158" class="label" fill="#071014" text-anchor="middle">Accuracy 38m</text>
<text x="90" y="220" class="footer" text-anchor="middle">Need 25m or better</text>
<rect x="182" y="0" width="18" height="228" fill="#071014"/>
<g fill="none" stroke="#f7fbf8" stroke-width="2">
<circle cx="191" cy="57" r="5"/>
<path d="M193 51 L197 51 L197 55"/>
</g>

<g stroke="#f7fbf8" stroke-width="2">
<path d="M186 166 L195 166 M186 171 L195 171 M186 176 L195 176"/>
</g>
<g fill="#f7fbf8"><circle cx="197" cy="166" r="1.2"/><circle cx="197" cy="171" r="1.2"/><circle cx="197" cy="176" r="1.2"/></g>
</svg>
