<svg xmlns="http://www.w3.org/2000/svg" width="400" height="456" viewBox="0 0 200 228">
<style>
  .status { font: 700 11px -apple-system, BlinkMacSystemFont, "Segoe UI", sans-serif; letter-spacing: 0; }
  .timer { font: 800 31px -apple-system, BlinkMacSystemFont, "Segoe UI", sans-serif; letter-spacing: 0; }
  .label { font: 500 13px -apple-system, BlinkMacSystemFont, "Segoe UI", sans-serif; fill: #3e5459; letter-spacing: 0; }
  .value { font: 750 19px -apple-system, BlinkMacSystemFont, "Segoe UI", sans-serif; fill: #071014; letter-spacing: 0; }
  .menu { font: 750 16px -apple-system, BlinkMacSystemFont, "Segoe UI", sans-serif; letter-spacing: 0; }
  .footer { font: 500 12px -apple-system, BlinkMacSystemFont, "Segoe UI", sans-serif; fill: #3e5459; letter-spacing: 0; }
  .title { font: 750 20px -apple-system, BlinkMacSystemFont, "Segoe UI", sans-serif; letter-spacing: 0; }
</style>
<rect width="200" height="228" fill="#f7fbf8"/>
<rect width="180" height="2" fill="#007c54"/>
<text x="8" y="17" class="status" fill="#3e5459">RUN</text>
<text x="90" y="17" class="status" fill="#071014" text-anchor="middle">10:09</text>
<text x="180" y="17" class="status" fill="#007c54" text-anchor="end">REC</text>
<rect x="0" y="27" width="180" height="58" fill="#007c54"/>

<text x="90" y="70" class="timer" fill="#ffffff" text-anchor="middle">00:18</text>
<line x1="8" y1="86" x2="176" y2="86" stroke="#3e5459" stroke-width="1" stroke-dasharray="1 3" opacity="0.65"/>
<text x="8" y="111" class="status" fill="#3e5459">DIST</text>
<text x="140" y="115" class="value" text-anchor="end">42</text>
<text x="143" y="111" class="status" fill="#071014">M</text>
<line x1="8" y1="125" x2="176" y2="125" stroke="#3e5459" stroke-width="1" stroke-dasharray="1 3" opacity="0.65"/>
<text x="8" y="150" class="status" fill="#3e5459">PACE</text>
<text x="140" y="154" class="value" text-anchor="end">--:--</text>
<text x="143" y="150" class="status" fill="#071014"></text>
<line x1="8" y1="164" x2="176" y2="164" stroke="#3e5459" stroke-width="1" stroke-dasharray="1 3" opacity="0.65"/>
<circle cx="20" cy="184" r="11" fill="none" stroke="#3e5459" stroke-width="1"/>
<path d="M 20 192 C 8 184, 12 176, 20 181 C 28 176, 32 184, 20 192 Z" fill="#007c54"/>
<text x="40" y="188" class="status" fill="#3e5459">MEASURING</text>
<text x="90" y="222" class="footer" text-anchor="middle">GPS 11 M</text>
<rect x="182" y="0" width="18" height="228" fill="#071014"/>

<g fill="#f7fbf8"><rect x="186" y="108" width="3" height="12" rx="1"/><rect x="193" y="108" width="3" height="12" rx="1"/></g>
<rect x="186" y="166" width="10" height="10" rx="1" fill="#f7fbf8"/>
</svg>
