<svg xmlns="http://www.w3.org/2000/svg" width="400" height="456" viewBox="0 0 200 228">
<style>
  .status { font: 700 11px -apple-system, BlinkMacSystemFont, "Segoe UI", sans-serif; letter-spacing: 0; }
  .timer { font: 800 31px -apple-system, BlinkMacSystemFont, "Segoe UI", sans-serif; letter-spacing: 0; }
  .label { font: 500 13px -apple-system, BlinkMacSystemFont, "Segoe UI", sans-serif; fill: #3e5459; letter-spacing: 0; }
  .value { font: 750 19px -apple-system, BlinkMacSystemFont, "Segoe UI", sans-serif; fill: #071014; letter-spacing: 0; }
  .menu { font: 750 16px -apple-system, BlinkMacSystemFont, "Segoe UI", sans-serif; letter-spacing: 0; }
  .footer { font: 500 12px -apple-system, BlinkMacSystemFont, "Segoe UI", sans-serif; fill: #3e5459; letter-spacing: 0; }
  .title { font: 750 20px -apple-system, BlinkMacSystemFont, "Segoe UI", sans-serif; letter-spacing: 0; }
</style>
<rect width="200" height="228" fill="#f7fbf8"/>
<rect width="180" height="2" fill="#9a6500"/>
<text x="8" y="17" class="status" fill="#3e5459">RUN</text>
<text x="90" y="17" class="status" fill="#071014" text-anchor="middle">10:09</text>
<text x="180" y="17" class="status" fill="#9a6500" text-anchor="end">PAUSE</text>
<rect x="0" y="27" width="180" height="58" fill="#ffdc00"/>
<text x="7" y="41" class="status" fill="#000000">PAUSED</text>
<text x="90" y="70" class="timer" fill="#000000" text-anchor="middle">23:14</text>
<line x1="8" y1="86" x2="176" y2="86" stroke="#3e5459" stroke-width="1" stroke-dasharray="1 3" opacity="0.65"/>
<text x="8" y="111" class="status" fill="#3e5459">DIST</text>
<text x="140" y="115" class="value" text-anchor="end">4.62</text>
<text x="143" y="111" class="status" fill="#071014">KM</text>
<line x1="8" y1="125" x2="176" y2="125" stroke="#3e5459" stroke-width="1" stroke-dasharray="1 3" opacity="0.65"/>
<text x="8" y="150" class="status" fill="#3e5459">PACE</text>
<text x="140" y="154" class="value" text-anchor="end">5:02</text>
<text x="143" y="150" class="status" fill="#071014">/KM</text>
<rect x="0" y="164" width="180" height="39" fill="#ffdc00"/>
<line x1="8" y1="164" x2="176" y2="164" stroke="#000000" stroke-width="1" stroke-dasharray="1 3" opacity="0.65"/>
<text x="8" y="178" class="status" fill="#000000">ENDURANCE</text>
<path d="M 114 193 C 102 185, 106 177, 114 182 C 122 177, 126 185, 114 193 Z" fill="#000000"/>
<text x="176" y="193" class="value" fill="#000000" text-anchor="end">153</text>
<rect x="8" y="195" width="12" height="4" fill="#000000"/>
<rect x="23" y="195" width="12" height="4" fill="#000000"/>
<rect x="38" y="195" width="12" height="4" fill="none" stroke="#000000" stroke-width="1"/>
<text x="90" y="222" class="footer" text-anchor="middle">GPS 10 M</text>
<rect x="180" y="0" width="20" height="228" fill="#071014"/>
<path d="M187 51 L195 57 L187 63 Z" fill="none" stroke="#f7fbf8" stroke-width="2"/>
<rect x="185" y="109" width="10" height="10" rx="1" fill="#f7fbf8"/>

</svg>
