<svg xmlns="http://www.w3.org/2000/svg" width="400" height="456" viewBox="0 0 200 228">
<style>
  .status { font: 700 11px -apple-system, BlinkMacSystemFont, "Segoe UI", sans-serif; letter-spacing: 0; }
  .timer { font: 800 31px -apple-system, BlinkMacSystemFont, "Segoe UI", sans-serif; letter-spacing: 0; }
  .label { font: 500 13px -apple-system, BlinkMacSystemFont, "Segoe UI", sans-serif; fill: #3e5459; letter-spacing: 0; }
  .value { font: 750 19px -apple-system, BlinkMacSystemFont, "Segoe UI", sans-serif; fill: #071014; letter-spacing: 0; }
  .menu { font: 750 16px -apple-system, BlinkMacSystemFont, "Segoe UI", sans-serif; letter-spacing: 0; }
  .footer { font: 500 12px -apple-system, BlinkMacSystemFont, "Segoe UI", sans-serif; fill: #3e5459; letter-spacing: 0; }
  .title { font: 750 20px -apple-system, BlinkMacSystemFont, "Segoe UI", sans-serif; letter-spacing: 0; }
</style>
<rect width="200" height="228" fill="#f7fbf8"/>
<rect width="180" height="2" fill="#007c54"/>
<text x="8" y="17" class="status" fill="#3e5459">RUN</text>
<text x="90" y="17" class="status" fill="#071014" text-anchor="middle">10:09</text>
<text x="180" y="17" class="status" fill="#007c54" text-anchor="end">SPLIT</text>
<text x="90" y="59" class="title" fill="#007c54" text-anchor="middle">KM 4</text>
<text x="90" y="103" class="timer" fill="#071014" text-anchor="middle">05:02</text>
<text x="8" y="138" class="label">PACE</text>
<text x="180" y="140" class="value" text-anchor="end">5:02/km</text>
<rect x="6" y="159" width="170" height="29" rx="3" fill="#ffdc00"/>
<text x="10" y="174" class="status" fill="#000000">ENDURANCE</text>
<text x="172" y="181" class="value" fill="#000000" text-anchor="end">154</text>
<rect x="10" y="182" width="11" height="3" rx="1" fill="#000000"/>
<rect x="24" y="182" width="11" height="3" rx="1" fill="#000000"/>
<rect x="38" y="182" width="11" height="3" rx="1" fill="none" stroke="#000000" stroke-width="1"/>
<text x="90" y="222" class="footer" text-anchor="middle">Activity still recording</text>
<rect x="182" y="0" width="18" height="228" fill="#071014"/>

<g fill="#f7fbf8"><rect x="186" y="108" width="3" height="12" rx="1"/><rect x="193" y="108" width="3" height="12" rx="1"/></g>
<g fill="none" stroke="#f7fbf8" stroke-width="2">
<rect x="186" y="165" width="11" height="11"/>
<path d="M188 173 L195 173 M188 179 L195 179"/>
</g>
<rect x="189" y="166" width="5" height="3" fill="#f7fbf8"/>
</svg>
